<?xml version="1.0" standalone="no"?><!DOCTYPE svg PUBLIC "-//W3C//DTD SVG 1.1//EN" "http://www.w3.org/Graphics/SVG/1.1/DTD/svg11.dtd"><svg t="1538191438908" class="icon" style="" viewBox="0 0 1024 1024" version="1.1" xmlns="http://www.w3.org/2000/svg" p-id="2687" xmlns:xlink="http://www.w3.org/1999/xlink" width="200" height="200"><defs><style type="text/css"></style></defs><path d="M960 106.666667H64C27.733333 106.666667 0 134.4 0 170.666667v682.666666c0 36.266667 27.733333 64 64 64h896c36.266667 0 64-27.733333 64-64V170.666667c0-36.266667-27.733333-64-64-64zM426.666667 682.666667H170.666667c-12.8 0-21.333333-8.533333-21.333334-21.333334s8.533333-21.333333 21.333334-21.333333h256c12.8 0 21.333333 8.533333 21.333333 21.333333s-8.533333 21.333333-21.333333 21.333334z m0-149.333334H170.666667c-12.8 0-21.333333-8.533333-21.333334-21.333333s8.533333-21.333333 21.333334-21.333333h256c12.8 0 21.333333 8.533333 21.333333 21.333333s-8.533333 21.333333-21.333333 21.333333z m0-149.333333H170.666667c-12.8 0-21.333333-8.533333-21.333334-21.333333s8.533333-21.333333 21.333334-21.333334h256c12.8 0 21.333333 8.533333 21.333333 21.333334s-8.533333 21.333333-21.333333 21.333333z m469.333333 320c0 12.8-8.533333 21.333333-21.333333 21.333333H576c-12.8 0-21.333333-8.533333-21.333333-21.333333v-21.333333c0-36.266667 27.733333-64 64-64 23.466667 0 42.666667-19.2 42.666666-42.666667v-19.2c-38.4-25.6-64-74.666667-64-130.133333 0-83.2 57.6-149.333333 128-149.333334s128 66.133333 128 149.333334c0 55.466667-25.6 104.533333-64 130.133333v19.2c0 23.466667 19.2 42.666667 42.666667 42.666667 36.266667 0 64 27.733333 64 64v21.333333z" fill="#8a8a8a" p-id="2688"></path></svg>